# xmcd CD database file
# Copyright (C) 1993-1998 Ti Kan
# 
# Track frame offsets:
#     150
#     8907
#     18700
#     34292
#     52167
#     64715
#     74795
#     89695
#     98310
#     113192
#     130980
#     142147
#     151102
#     166552
# 
# Disc length: 2373 seconds
# 
# Revision: 1
# Processed by: cddbd v1.4b41PL1 Copyright (c) Steve Scherf et al.
# Submitted via: DiscPlay 4.0.4
# 
DISCID=c209430e
DTITLE=Doyle Lawson and Quicksilver - Gospel Radio Gems
DYEAR=1900
DGENRE=
TTITLE0=I'm Riding High on Wings of Love
TTITLE1='Til the Last Leaf Shall Fall
TTITLE2=We Should Walk Together
TTITLE3=Peace Like a River
TTITLE4=Just a Veil Between
TTITLE5=Things Invisible
TTITLE6=Dreamboat
TTITLE7=I'm Finding Joy in My Savior's Love
TTITLE8=Home of the Soul
TTITLE9=Never Leave Me
TTITLE10=When the Good Lord Cares
TTITLE11=I Am So Glad
TTITLE12=I Hold His Hand
TTITLE13=Better Farther On
EXTD=
EXTT0=
EXTT1=
EXTT2=
EXTT3=
EXTT4=
EXTT5=
EXTT6=
EXTT7=
EXTT8=
EXTT9=
EXTT10=
EXTT11=
EXTT12=
EXTT13=
PLAYORDER=
